<svg width="156" height="107" viewBox="0 0 156 107" fill="none" xmlns="http://www.w3.org/2000/svg">
<g filter="url(#filter0_d_1586_4468)">
<rect x="4" width="148" height="99" rx="26" fill="black"/>
<path d="M75.5398 42.5789C74.2955 42.5789 73.1662 42.3445 72.152 41.8758C71.1378 41.3985 70.3324 40.7124 69.7358 39.8175C69.1392 38.9141 68.8409 37.8232 68.8409 36.5448C68.8409 35.4198 69.0625 34.5079 69.5057 33.809C69.9489 33.1016 70.5412 32.5476 71.2827 32.1471C72.0241 31.7465 72.8423 31.4482 73.7372 31.2522C74.6406 31.0476 75.5483 30.8857 76.4602 30.7664C77.6534 30.613 78.6207 30.4979 79.3622 30.4212C80.1122 30.336 80.6577 30.1954 80.9986 29.9993C81.348 29.8033 81.5227 29.4624 81.5227 28.9766V28.8743C81.5227 27.613 81.1776 26.6329 80.4872 25.934C79.8054 25.2351 78.7699 24.8857 77.3807 24.8857C75.9403 24.8857 74.8111 25.201 73.9929 25.8317C73.1747 26.4624 72.5994 27.1357 72.267 27.8516L69.4034 26.8289C69.9148 25.6357 70.5966 24.7067 71.4489 24.0419C72.3097 23.3687 73.2472 22.8999 74.2614 22.6357C75.2841 22.363 76.2898 22.2266 77.2784 22.2266C77.9091 22.2266 78.6335 22.3033 79.4517 22.4567C80.2784 22.6016 81.0753 22.9042 81.8423 23.3644C82.6179 23.8246 83.2614 24.5192 83.7727 25.4482C84.2841 26.3772 84.5398 27.6215 84.5398 29.1812V42.1187H81.5227V39.4596H81.3693C81.1648 39.8857 80.8239 40.3417 80.3466 40.8275C79.8693 41.3133 79.2344 41.7266 78.4418 42.0675C77.6491 42.4084 76.6818 42.5789 75.5398 42.5789ZM76 39.8687C77.1932 39.8687 78.1989 39.6343 79.017 39.1655C79.8438 38.6968 80.4659 38.0917 80.8835 37.3502C81.3097 36.6087 81.5227 35.8289 81.5227 35.0107V32.2493C81.3949 32.4027 81.1136 32.5434 80.679 32.6712C80.2528 32.7905 79.7585 32.8971 79.196 32.9908C78.642 33.076 78.1009 33.1527 77.5724 33.2209C77.0526 33.2806 76.6307 33.3317 76.3068 33.3743C75.5227 33.4766 74.7898 33.6428 74.108 33.8729C73.4347 34.0945 72.8892 34.4312 72.4716 34.8829C72.0625 35.326 71.858 35.9312 71.858 36.6982C71.858 37.7465 72.2457 38.5391 73.0213 39.076C73.8054 39.6044 74.7983 39.8687 76 39.8687ZM100.536 26.88L97.8254 27.6471C97.6549 27.1954 97.4035 26.7564 97.0711 26.3303C96.7473 25.8956 96.3041 25.5377 95.7416 25.2564C95.1791 24.9752 94.4589 24.8346 93.5811 24.8346C92.3794 24.8346 91.3779 25.1115 90.5768 25.6655C89.7842 26.211 89.3879 26.9056 89.3879 27.7493C89.3879 28.4993 89.6606 29.0917 90.2061 29.5263C90.7515 29.961 91.6038 30.3232 92.7629 30.613L95.6777 31.3289C97.4333 31.755 98.7416 32.407 99.6024 33.2848C100.463 34.1542 100.894 35.2749 100.894 36.6471C100.894 37.7721 100.57 38.7777 99.922 39.6641C99.2828 40.5505 98.3879 41.2493 97.2373 41.7607C96.0867 42.2721 94.7487 42.5277 93.2231 42.5277C91.2203 42.5277 89.5626 42.0931 88.2501 41.2238C86.9376 40.3544 86.1066 39.0846 85.7572 37.4141L88.6208 36.6982C88.8936 37.755 89.4092 38.5476 90.1677 39.076C90.9348 39.6044 91.9362 39.8687 93.172 39.8687C94.5782 39.8687 95.6947 39.5704 96.5214 38.9738C97.3566 38.3687 97.7742 37.6442 97.7742 36.8005C97.7742 36.1187 97.5356 35.5476 97.0583 35.0874C96.5811 34.6187 95.8481 34.2692 94.8595 34.0391L91.5867 33.2721C89.7885 32.8459 88.4674 32.1854 87.6237 31.2905C86.7885 30.3871 86.3708 29.2579 86.3708 27.9027C86.3708 26.7948 86.6819 25.8147 87.3041 24.9624C87.9348 24.1101 88.7913 23.4411 89.8737 22.9553C90.9646 22.4695 92.2004 22.2266 93.5811 22.2266C95.5242 22.2266 97.0498 22.6527 98.1578 23.505C99.2742 24.3573 100.067 25.4823 100.536 26.88ZM105.032 30.3062V42.1187H102.015V15.9368H105.032V25.5505H105.288C105.748 24.5363 106.438 23.7309 107.359 23.1343C108.288 22.5292 109.524 22.2266 111.066 22.2266C112.404 22.2266 113.576 22.4951 114.582 23.032C115.588 23.5604 116.367 24.3743 116.921 25.4738C117.484 26.5647 117.765 27.9539 117.765 29.6414V42.1187H114.748V29.8459C114.748 28.2863 114.343 27.0803 113.534 26.228C112.732 25.3672 111.62 24.9368 110.197 24.9368C109.208 24.9368 108.322 25.1456 107.538 25.5633C106.762 25.9809 106.149 26.5902 105.697 27.3914C105.254 28.1925 105.032 29.1641 105.032 30.3062ZM85.0061 66.4823V69.0391H74.83V66.4823H85.0061ZM77.7959 61.7777H80.813V80.4937C80.813 81.3459 80.9365 81.9851 81.1837 82.4113C81.4394 82.8289 81.7632 83.1101 82.1553 83.255C82.5559 83.3914 82.9777 83.4596 83.4209 83.4596C83.7533 83.4596 84.026 83.4425 84.2391 83.4084C84.4522 83.3658 84.6226 83.3317 84.7505 83.3062L85.3641 86.0164C85.1595 86.0931 84.874 86.1698 84.5076 86.2465C84.1411 86.3317 83.6766 86.3743 83.1141 86.3743C82.2618 86.3743 81.4266 86.1911 80.6084 85.8246C79.7988 85.4581 79.1255 84.8999 78.5885 84.1499C78.0601 83.3999 77.7959 82.4539 77.7959 81.3118V61.7777ZM86.1245 86.1187V66.4823H89.0393V69.4482H89.2438C89.6018 68.4766 90.2495 67.6883 91.187 67.0831C92.1245 66.478 93.1813 66.1755 94.3574 66.1755C94.579 66.1755 94.856 66.1797 95.1884 66.1883C95.5208 66.1968 95.7722 66.2096 95.9427 66.2266V69.2948C95.8404 69.2692 95.606 69.2309 95.2395 69.1797C94.8816 69.1201 94.5023 69.0902 94.1018 69.0902C93.1472 69.0902 92.2949 69.2905 91.5449 69.6911C90.8035 70.0831 90.2154 70.6286 89.7807 71.3275C89.3546 72.0178 89.1415 72.8062 89.1415 73.6925V86.1187H86.1245ZM101.877 86.5789C100.633 86.5789 99.5038 86.3445 98.4896 85.8758C97.4754 85.3985 96.67 84.7124 96.0735 83.8175C95.4769 82.9141 95.1786 81.8232 95.1786 80.5448C95.1786 79.4198 95.4002 78.5079 95.8433 77.809C96.2865 77.1016 96.8788 76.5476 97.6203 76.1471C98.3618 75.7465 99.18 75.4482 100.075 75.2522C100.978 75.0476 101.886 74.8857 102.798 74.7664C103.991 74.613 104.958 74.4979 105.7 74.4212C106.45 74.336 106.995 74.1954 107.336 73.9993C107.686 73.8033 107.86 73.4624 107.86 72.9766V72.8743C107.86 71.613 107.515 70.6329 106.825 69.934C106.143 69.2351 105.108 68.8857 103.718 68.8857C102.278 68.8857 101.149 69.201 100.331 69.8317C99.5124 70.4624 98.9371 71.1357 98.6047 71.8516L95.7411 70.8289C96.2524 69.6357 96.9342 68.7067 97.7865 68.0419C98.6473 67.3687 99.5848 66.8999 100.599 66.6357C101.622 66.363 102.627 66.2266 103.616 66.2266C104.247 66.2266 104.971 66.3033 105.789 66.4567C106.616 66.6016 107.413 66.9042 108.18 67.3644C108.956 67.8246 109.599 68.5192 110.11 69.4482C110.622 70.3772 110.877 71.6215 110.877 73.1812V86.1187H107.86V83.4596H107.707C107.502 83.8857 107.162 84.3417 106.684 84.8275C106.207 85.3133 105.572 85.7266 104.779 86.0675C103.987 86.4084 103.019 86.5789 101.877 86.5789ZM102.338 83.8687C103.531 83.8687 104.537 83.6343 105.355 83.1655C106.181 82.6968 106.804 82.0917 107.221 81.3502C107.647 80.6087 107.86 79.8289 107.86 79.0107V76.2493C107.733 76.4027 107.451 76.5434 107.017 76.6712C106.59 76.7905 106.096 76.8971 105.534 76.9908C104.98 77.076 104.439 77.1527 103.91 77.2209C103.39 77.2806 102.968 77.3317 102.644 77.3743C101.86 77.4766 101.127 77.6428 100.446 77.8729C99.7723 78.0945 99.2269 78.4312 98.8092 78.8829C98.4002 79.326 98.1956 79.9312 98.1956 80.6982C98.1956 81.7465 98.5834 82.5391 99.359 83.076C100.143 83.6044 101.136 83.8687 102.338 83.8687ZM120.941 86.5277C119.101 86.5277 117.515 86.0931 116.186 85.2238C114.856 84.3544 113.833 83.157 113.118 81.6314C112.402 80.1059 112.044 78.363 112.044 76.4027C112.044 74.4084 112.41 72.6485 113.143 71.1229C113.885 69.5888 114.916 68.3914 116.237 67.5306C117.566 66.6613 119.118 66.2266 120.89 66.2266C122.271 66.2266 123.515 66.4823 124.623 66.9937C125.731 67.505 126.639 68.2209 127.346 69.1414C128.054 70.0618 128.493 71.1357 128.663 72.363H125.646C125.416 71.4681 124.905 70.6755 124.112 69.9851C123.328 69.2863 122.271 68.9368 120.941 68.9368C119.765 68.9368 118.734 69.2437 117.848 69.8573C116.97 70.4624 116.284 71.3189 115.789 72.4269C115.304 73.5263 115.061 74.8175 115.061 76.3005C115.061 77.8175 115.299 79.1385 115.777 80.2635C116.262 81.3885 116.944 82.2621 117.822 82.8843C118.708 83.5064 119.748 83.8175 120.941 83.8175C121.726 83.8175 122.437 83.6812 123.076 83.4084C123.716 83.1357 124.257 82.7437 124.7 82.2323C125.143 81.7209 125.458 81.1073 125.646 80.3914H128.663C128.493 81.5505 128.071 82.5945 127.397 83.5235C126.733 84.4439 125.851 85.1769 124.751 85.7223C123.66 86.2593 122.39 86.5277 120.941 86.5277ZM132.466 78.9596L132.415 75.2266H133.029L141.619 66.4823H145.352L136.199 75.738H135.943L132.466 78.9596ZM129.654 86.1187V59.9368H132.671V86.1187H129.654ZM142.131 86.1187L134.46 76.4027L136.608 74.3062L145.966 86.1187H142.131Z" fill="white"/>
<path d="M67.6917 36.2416L63.6783 44.9664H6.79236L9.9333 36.2416H67.6917ZM60.1883 53.6913L56.1749 62.4161H6.79236L9.9333 53.6913H60.1883ZM77.987 12.6846L73.7991 21.7584C71.9378 20.0716 69.9747 18.6174 67.9098 17.396C65.8449 16.1745 63.6783 15.2293 61.4098 14.5604C59.1414 13.8915 56.7566 13.557 54.2555 13.557C49.3114 13.557 44.8617 14.9239 40.9065 17.6577C36.9512 20.3915 33.8248 24.4195 31.5273 29.7416C29.2297 35.0638 28.081 41.5928 28.081 49.3289C28.081 57.0649 29.2297 63.594 31.5273 68.9161C33.8248 74.2383 36.9512 78.2662 40.9065 81C44.8617 83.7338 49.3114 85.1007 54.2555 85.1007C56.8147 85.1007 59.2286 84.7662 61.4971 84.0973C63.7946 83.4284 65.9322 82.5123 67.9098 81.349C69.9165 80.1857 71.7633 78.877 73.4501 77.4228L77.8125 86.4966C74.7588 89.3758 71.1816 91.557 67.081 93.0403C62.9803 94.4944 58.7051 95.2215 54.2555 95.2215C47.1011 95.2215 40.761 93.3602 35.2353 89.6376C29.7387 85.915 25.4199 80.6219 22.2789 73.7584C19.1671 66.8949 17.6112 58.7517 17.6112 49.3289C17.6112 39.906 19.1671 31.7629 22.2789 24.8993C25.4199 18.0358 29.7387 12.7427 35.2353 9.02012C40.761 5.29753 47.1011 3.43623 54.2555 3.43623C58.8796 3.43623 63.1984 4.23601 67.2118 5.83556C71.2543 7.43511 74.8461 9.71811 77.987 12.6846Z" fill="white"/>
</g>
<defs>
<filter id="filter0_d_1586_4468" x="0" y="0" width="156" height="107" filterUnits="userSpaceOnUse" color-interpolation-filters="sRGB">
<feFlood flood-opacity="0" result="BackgroundImageFix"/>
<feColorMatrix in="SourceAlpha" type="matrix" values="0 0 0 0 0 0 0 0 0 0 0 0 0 0 0 0 0 0 127 0" result="hardAlpha"/>
<feOffset dy="4"/>
<feGaussianBlur stdDeviation="2"/>
<feComposite in2="hardAlpha" operator="out"/>
<feColorMatrix type="matrix" values="0 0 0 0 0 0 0 0 0 0 0 0 0 0 0 0 0 0 0.25 0"/>
<feBlend mode="normal" in2="BackgroundImageFix" result="effect1_dropShadow_1586_4468"/>
<feBlend mode="normal" in="SourceGraphic" in2="effect1_dropShadow_1586_4468" result="shape"/>
</filter>
</defs>
</svg>
