<svg width="28" height="31" viewBox="0 0 28 31" fill="none" xmlns="http://www.w3.org/2000/svg">
<rect width="28" height="31" rx="8.43243" fill="black"/>
<path d="M21.5216 11.2675L20.22 14.0972H1.7705L2.78918 11.2675H21.5216ZM19.0881 16.9269L17.7865 19.7566H1.7705L2.78918 16.9269H19.0881ZM24.8606 3.62742L23.5024 6.57028C22.8987 6.02321 22.2621 5.5516 21.5924 5.15545C20.9227 4.75929 20.22 4.45274 19.4843 4.2358C18.7486 4.01886 17.9751 3.91039 17.1639 3.91039C15.5604 3.91039 14.1173 4.3537 12.8345 5.24034C11.5517 6.12697 10.5378 7.43334 9.79263 9.15944C9.04748 10.8855 8.6749 13.0031 8.6749 15.5121C8.6749 18.021 9.04748 20.1386 9.79263 21.8647C10.5378 23.5908 11.5517 24.8972 12.8345 25.7838C14.1173 26.6704 15.5604 27.1137 17.1639 27.1137C17.994 27.1137 18.7768 27.0053 19.5126 26.7883C20.2577 26.5714 20.951 26.2743 21.5924 25.897C22.2432 25.5197 22.8421 25.0952 23.3892 24.6236L24.8041 27.5665C23.8137 28.5003 22.6535 29.2077 21.3236 29.6887C19.9936 30.1603 18.6071 30.3962 17.1639 30.3962C14.8436 30.3962 12.7874 29.7925 10.9952 28.5852C9.21254 27.3778 7.81185 25.6612 6.79317 23.4352C5.78392 21.2091 5.27929 18.5681 5.27929 15.5121C5.27929 12.456 5.78392 9.81498 6.79317 7.58897C7.81185 5.36296 9.21254 3.64629 10.9952 2.43896C12.7874 1.23163 14.8436 0.627964 17.1639 0.627964C18.6637 0.627964 20.0643 0.887351 21.366 1.40613C22.6771 1.9249 23.842 2.66533 24.8606 3.62742Z" fill="white"/>
</svg>
