<svg width="48" height="48" viewBox="0 0 48 48" fill="none" xmlns="http://www.w3.org/2000/svg">
<rect y="8.10791" width="48" height="32.1081" rx="8.43243" fill="black"/>
<path d="M23.2021 21.5663C22.7985 21.5663 22.4323 21.4902 22.1033 21.3382C21.7744 21.1834 21.5132 20.9609 21.3197 20.6707C21.1262 20.3777 21.0295 20.0239 21.0295 19.6093C21.0295 19.2444 21.1014 18.9486 21.2451 18.722C21.3888 18.4925 21.5809 18.3129 21.8214 18.183C22.0619 18.053 22.3272 17.9563 22.6175 17.8927C22.9105 17.8264 23.2049 17.7739 23.5006 17.7352C23.8876 17.6854 24.2013 17.6481 24.4418 17.6232C24.685 17.5956 24.8619 17.55 24.9725 17.4864C25.0858 17.4228 25.1425 17.3123 25.1425 17.1547V17.1215C25.1425 16.7124 25.0306 16.3946 24.8067 16.1679C24.5855 15.9413 24.2497 15.8279 23.7991 15.8279C23.332 15.8279 22.9658 15.9302 22.7004 16.1347C22.435 16.3393 22.2485 16.5577 22.1407 16.7898L21.2119 16.4581C21.3778 16.0712 21.5989 15.7699 21.8753 15.5543C22.1545 15.3359 22.4585 15.1839 22.7875 15.0982C23.1192 15.0097 23.4453 14.9655 23.766 14.9655C23.9705 14.9655 24.2055 14.9904 24.4708 15.0401C24.7389 15.0871 24.9974 15.1853 25.2462 15.3345C25.4977 15.4838 25.7064 15.7091 25.8722 16.0104C26.0381 16.3116 26.121 16.7152 26.121 17.221V21.417H25.1425V20.5546H25.0928C25.0264 20.6928 24.9158 20.8407 24.7611 20.9982C24.6063 21.1558 24.4003 21.2898 24.1433 21.4004C23.8862 21.511 23.5725 21.5663 23.2021 21.5663ZM23.3514 20.6873C23.7383 20.6873 24.0645 20.6112 24.3299 20.4592C24.598 20.3072 24.7998 20.1109 24.9352 19.8705C25.0734 19.63 25.1425 19.3771 25.1425 19.1117V18.2161C25.101 18.2659 25.0098 18.3115 24.8689 18.353C24.7307 18.3917 24.5703 18.4262 24.3879 18.4566C24.2082 18.4843 24.0327 18.5091 23.8613 18.5312C23.6927 18.5506 23.5559 18.5672 23.4509 18.581C23.1966 18.6142 22.9588 18.6681 22.7377 18.7427C22.5194 18.8146 22.3424 18.9237 22.207 19.0702C22.0743 19.214 22.008 19.4102 22.008 19.659C22.008 19.999 22.1338 20.2561 22.3853 20.4302C22.6396 20.6016 22.9616 20.6873 23.3514 20.6873ZM31.3088 16.4747L30.4299 16.7235C30.3746 16.577 30.293 16.4347 30.1852 16.2964C30.0802 16.1555 29.9365 16.0394 29.754 15.9482C29.5716 15.8569 29.338 15.8113 29.0533 15.8113C28.6636 15.8113 28.3388 15.9012 28.079 16.0808C27.8219 16.2577 27.6934 16.483 27.6934 16.7567C27.6934 16.9999 27.7818 17.192 27.9587 17.333C28.1356 17.474 28.412 17.5914 28.788 17.6854L29.7333 17.9176C30.3027 18.0558 30.727 18.2673 31.0062 18.552C31.2854 18.8339 31.4249 19.1974 31.4249 19.6424C31.4249 20.0073 31.3199 20.3335 31.1098 20.6209C30.9025 20.9084 30.6123 21.1351 30.2391 21.3009C29.866 21.4667 29.432 21.5497 28.9372 21.5497C28.2877 21.5497 27.75 21.4087 27.3244 21.1268C26.8987 20.8448 26.6292 20.433 26.5159 19.8912L27.4446 19.659C27.5331 20.0018 27.7003 20.2588 27.9463 20.4302C28.1951 20.6016 28.5198 20.6873 28.9206 20.6873C29.3767 20.6873 29.7388 20.5905 30.0069 20.397C30.2778 20.2008 30.4133 19.9658 30.4133 19.6922C30.4133 19.471 30.3359 19.2858 30.1811 19.1366C30.0263 18.9846 29.7886 18.8712 29.4679 18.7966L28.4065 18.5478C27.8233 18.4096 27.3948 18.1954 27.1212 17.9052C26.8503 17.6122 26.7149 17.2459 26.7149 16.8064C26.7149 16.4471 26.8158 16.1292 27.0175 15.8528C27.2221 15.5764 27.4999 15.3594 27.8509 15.2019C28.2047 15.0443 28.6055 14.9655 29.0533 14.9655C29.6835 14.9655 30.1783 15.1037 30.5377 15.3801C30.8998 15.6565 31.1568 16.0214 31.3088 16.4747ZM32.7672 17.5859V21.417H31.7887V12.9256H32.7672V16.0435H32.8501C32.9994 15.7146 33.2233 15.4534 33.5218 15.2599C33.8231 15.0636 34.2239 14.9655 34.7242 14.9655C35.1582 14.9655 35.5382 15.0526 35.8644 15.2267C36.1906 15.3981 36.4435 15.6621 36.6231 16.0187C36.8056 16.3725 36.8968 16.823 36.8968 17.3703V21.417H35.9183V17.4366C35.9183 16.9308 35.787 16.5397 35.5244 16.2633C35.2646 15.9841 34.9039 15.8445 34.4423 15.8445C34.1216 15.8445 33.8341 15.9122 33.5798 16.0477C33.3283 16.1831 33.1293 16.3808 32.9828 16.6406C32.8391 16.9004 32.7672 17.2155 32.7672 17.5859ZM26.2723 29.0484V29.8777H22.9719V29.0484H26.2723ZM23.9338 27.5226H24.9123V33.5927C24.9123 33.8691 24.9524 34.0764 25.0326 34.2146C25.1155 34.35 25.2205 34.4413 25.3477 34.4882C25.4776 34.5325 25.6144 34.5546 25.7581 34.5546C25.8659 34.5546 25.9544 34.5491 26.0235 34.538C26.0926 34.5242 26.1479 34.5131 26.1893 34.5048L26.3884 35.3838C26.322 35.4087 26.2294 35.4336 26.1106 35.4585C25.9917 35.4861 25.8411 35.4999 25.6586 35.4999C25.3822 35.4999 25.1113 35.4405 24.846 35.3216C24.5834 35.2028 24.365 35.0217 24.1909 34.7785C24.0195 34.5352 23.9338 34.2284 23.9338 33.858V27.5226ZM26.635 35.417V29.0484H27.5803V30.0104H27.6466C27.7627 29.6952 27.9728 29.4396 28.2769 29.2433C28.5809 29.0471 28.9237 28.9489 29.3051 28.9489C29.377 28.9489 29.4668 28.9503 29.5746 28.9531C29.6824 28.9558 29.764 28.96 29.8192 28.9655V29.9606C29.7861 29.9523 29.7101 29.9399 29.5912 29.9233C29.4751 29.9039 29.3521 29.8943 29.2222 29.8943C28.9126 29.8943 28.6362 29.9592 28.393 30.0891C28.1525 30.2163 27.9618 30.3932 27.8208 30.6198C27.6826 30.8437 27.6135 31.0994 27.6135 31.3869V35.417H26.635ZM31.744 35.5663C31.3405 35.5663 30.9742 35.4902 30.6453 35.3382C30.3164 35.1834 30.0552 34.9609 29.8617 34.6707C29.6682 34.3777 29.5714 34.0239 29.5714 33.6093C29.5714 33.2444 29.6433 32.9486 29.787 32.722C29.9308 32.4925 30.1229 32.3129 30.3634 32.183C30.6038 32.053 30.8692 31.9563 31.1594 31.8927C31.4524 31.8264 31.7468 31.7739 32.0426 31.7352C32.4295 31.6854 32.7433 31.6481 32.9837 31.6232C33.227 31.5956 33.4039 31.55 33.5145 31.4864C33.6278 31.4228 33.6845 31.3123 33.6845 31.1547V31.1215C33.6845 30.7124 33.5725 30.3946 33.3486 30.1679C33.1275 29.9413 32.7916 29.8279 32.3411 29.8279C31.8739 29.8279 31.5077 29.9302 31.2423 30.1347C30.977 30.3393 30.7904 30.5577 30.6826 30.7898L29.7539 30.4581C29.9197 30.0712 30.1408 29.7699 30.4173 29.5543C30.6964 29.3359 31.0005 29.1839 31.3294 29.0982C31.6611 29.0097 31.9873 28.9655 32.3079 28.9655C32.5125 28.9655 32.7474 28.9904 33.0128 29.0401C33.2809 29.0871 33.5393 29.1853 33.7881 29.3345C34.0396 29.4838 34.2483 29.7091 34.4142 30.0104C34.58 30.3116 34.663 30.7152 34.663 31.221V35.417H33.6845V34.5546H33.6347C33.5684 34.6928 33.4578 34.8407 33.303 34.9982C33.1482 35.1558 32.9423 35.2898 32.6852 35.4004C32.4282 35.511 32.1144 35.5663 31.744 35.5663ZM31.8933 34.6873C32.2803 34.6873 32.6064 34.6112 32.8718 34.4592C33.1399 34.3072 33.3417 34.1109 33.4771 33.8705C33.6153 33.63 33.6845 33.3771 33.6845 33.1117V32.2161C33.643 32.2659 33.5518 32.3115 33.4108 32.353C33.2726 32.3917 33.1123 32.4262 32.9298 32.4566C32.7502 32.4843 32.5747 32.5091 32.4033 32.5312C32.2347 32.5506 32.0978 32.5672 31.9928 32.581C31.7385 32.6142 31.5008 32.6681 31.2797 32.7427C31.0613 32.8146 30.8844 32.9237 30.7489 33.0702C30.6163 33.214 30.5499 33.4102 30.5499 33.659C30.5499 33.999 30.6757 34.2561 30.9272 34.4302C31.1815 34.6016 31.5036 34.6873 31.8933 34.6873ZM37.927 35.5497C37.3299 35.5497 36.8158 35.4087 36.3846 35.1268C35.9534 34.8448 35.6217 34.4565 35.3895 33.9617C35.1573 33.4669 35.0412 32.9016 35.0412 32.2659C35.0412 31.6191 35.1601 31.0483 35.3978 30.5535C35.6383 30.056 35.9727 29.6676 36.4012 29.3884C36.8324 29.1065 37.3354 28.9655 37.9104 28.9655C38.3582 28.9655 38.7617 29.0484 39.1211 29.2143C39.4804 29.3801 39.7748 29.6123 40.0042 29.9108C40.2336 30.2094 40.376 30.5577 40.4313 30.9557H39.4528C39.3781 30.6655 39.2123 30.4084 38.9552 30.1845C38.7009 29.9578 38.3582 29.8445 37.927 29.8445C37.5455 29.8445 37.211 29.944 36.9236 30.143C36.6389 30.3393 36.4164 30.6171 36.256 30.9764C36.0985 31.333 36.0197 31.7518 36.0197 32.2327C36.0197 32.7247 36.0971 33.1532 36.2519 33.518C36.4095 33.8829 36.6306 34.1662 36.9153 34.368C37.2028 34.5698 37.54 34.6707 37.927 34.6707C38.1813 34.6707 38.4121 34.6265 38.6194 34.538C38.8267 34.4495 39.0022 34.3224 39.1459 34.1565C39.2897 33.9907 39.3919 33.7917 39.4528 33.5595H40.4313C40.376 33.9354 40.2392 34.274 40.0208 34.5753C39.8052 34.8738 39.5191 35.1116 39.1625 35.2885C38.8087 35.4626 38.3969 35.5497 37.927 35.5497ZM41.6647 33.0951L41.6481 31.8844H41.8471L44.6333 29.0484H45.844L42.8754 32.0503H42.7924L41.6647 33.0951ZM40.7525 35.417V26.9256H41.731V35.417H40.7525ZM44.7992 35.417L42.3115 32.2659L43.008 31.5859L46.043 35.417H44.7992Z" fill="white"/>
<path d="M20.7698 19.2675L19.4682 22.0972H1.01868L2.03737 19.2675H20.7698ZM18.3363 24.9269L17.0346 27.7566H1.01868L2.03737 24.9269H18.3363ZM24.1088 11.6274L22.7506 14.5703C22.1469 14.0232 21.5103 13.5516 20.8406 13.1554C20.1709 12.7593 19.4682 12.4527 18.7325 12.2358C17.9967 12.0189 17.2233 11.9104 16.4121 11.9104C14.8086 11.9104 13.3655 12.3537 12.0827 13.2403C10.7999 14.127 9.78596 15.4333 9.04081 17.1594C8.29567 18.8855 7.92309 21.0031 7.92309 23.5121C7.92309 26.021 8.29567 28.1386 9.04081 29.8647C9.78596 31.5908 10.7999 32.8972 12.0827 33.7838C13.3655 34.6704 14.8086 35.1137 16.4121 35.1137C17.2422 35.1137 18.025 35.0053 18.7608 34.7883C19.5059 34.5714 20.1992 34.2743 20.8406 33.897C21.4914 33.5197 22.0903 33.0952 22.6374 32.6236L24.0522 35.5665C23.0619 36.5003 21.9017 37.2077 20.5717 37.6887C19.2418 38.1603 17.8553 38.3962 16.4121 38.3962C14.0918 38.3962 12.0356 37.7925 10.2434 36.5852C8.46073 35.3778 7.06004 33.6612 6.04136 31.4352C5.03211 29.2091 4.52748 26.5681 4.52748 23.5121C4.52748 20.456 5.03211 17.815 6.04136 15.589C7.06004 13.363 8.46073 11.6463 10.2434 10.439C12.0356 9.23163 14.0918 8.62796 16.4121 8.62796C17.9118 8.62796 19.3125 8.88735 20.6142 9.40613C21.9253 9.9249 23.0902 10.6653 24.1088 11.6274Z" fill="white"/>
</svg>
